<svg width="512" height="512" xmlns="http://www.w3.org/2000/svg">

 <g>
  <title>background</title>
  <rect fill="none" id="canvas_background" height="402" width="582" y="-1" x="-1"/>
 </g>
 <g>
  <title>Layer 1</title>
  <path fill="#f9f9f4" stroke="#fcf7f7" id="svg_1" d="m197.33203,170.66797l-160,0c-20.58594,0 -37.33203,-16.74609 -37.33203,-37.33594l0,-96c0,-20.58594 16.74609,-37.33203 37.33203,-37.33203l160,0c20.58985,0 37.33594,16.74609 37.33594,37.33203l0,96c0,20.58985 -16.74609,37.33594 -37.33594,37.33594zm-160,-138.66797c-2.9414,0 -5.33203,2.39063 -5.33203,5.33203l0,96c0,2.94531 2.39063,5.33594 5.33203,5.33594l160,0c2.94531,0 5.33594,-2.39063 5.33594,-5.33594l0,-96c0,-2.9414 -2.39063,-5.33203 -5.33594,-5.33203l-160,0zm0,0"/>
  <path fill="#f9f9f4" id="svg_2" d="m197.33203,512l-160,0c-20.58594,0 -37.33203,-16.74609 -37.33203,-37.33203l0,-224c0,-20.58985 16.74609,-37.33594 37.33203,-37.33594l160,0c20.58985,0 37.33594,16.74609 37.33594,37.33594l0,224c0,20.58594 -16.74609,37.33203 -37.33594,37.33203zm-160,-266.66797c-2.9414,0 -5.33203,2.39063 -5.33203,5.33594l0,224c0,2.9414 2.39063,5.33203 5.33203,5.33203l160,0c2.94531,0 5.33594,-2.39063 5.33594,-5.33203l0,-224c0,-2.94531 -2.39063,-5.33594 -5.33594,-5.33594l-160,0zm0,0"/>
  <path fill="#f9f9f4" id="svg_3" d="m474.66797,512l-160,0c-20.58984,0 -37.33594,-16.74609 -37.33594,-37.33203l0,-96c0,-20.58984 16.7461,-37.33594 37.33594,-37.33594l160,0c20.58594,0 37.33203,16.7461 37.33203,37.33594l0,96c0,20.58594 -16.74609,37.33203 -37.33203,37.33203zm-160,-138.66797c-2.94531,0 -5.33594,2.39063 -5.33594,5.33594l0,96c0,2.94141 2.39063,5.33203 5.33594,5.33203l160,0c2.94141,0 5.33203,-2.39062 5.33203,-5.33203l0,-96c0,-2.94531 -2.39062,-5.33594 -5.33203,-5.33594l-160,0zm0,0"/>
  <path fill="#f9f9f4" id="svg_4" d="m474.66797,298.66797l-160,0c-20.58984,0 -37.33594,-16.74609 -37.33594,-37.33594l0,-224c0,-20.58594 16.7461,-37.33203 37.33594,-37.33203l160,0c20.58594,0 37.33203,16.74609 37.33203,37.33203l0,224c0,20.58985 -16.74609,37.33594 -37.33203,37.33594zm-160,-266.66797c-2.94531,0 -5.33594,2.39063 -5.33594,5.33203l0,224c0,2.94531 2.39063,5.33594 5.33594,5.33594l160,0c2.94141,0 5.33203,-2.39063 5.33203,-5.33594l0,-224c0,-2.9414 -2.39062,-5.33203 -5.33203,-5.33203l-160,0zm0,0"/>
 </g>
</svg>